<svg width="35" height="35" viewBox="0 0 35 35" fill="none" xmlns="http://www.w3.org/2000/svg">
<path d="M16.4646 17.5L21.6271 12.3375C21.8987 12.0643 22.0511 11.6947 22.0511 11.3094C22.0511 10.9241 21.8987 10.5545 21.6271 10.2813C21.4915 10.1446 21.3302 10.0361 21.1525 9.96204C20.9748 9.888 20.7842 9.84988 20.5917 9.84988C20.3991 9.84988 20.2085 9.888 20.0308 9.96204C19.8531 10.0361 19.6918 10.1446 19.5562 10.2813L13.3729 16.4646C13.2362 16.6002 13.1277 16.7615 13.0537 16.9392C12.9796 17.1169 12.9415 17.3075 12.9415 17.5C12.9415 17.6925 12.9796 17.8831 13.0537 18.0608C13.1277 18.2386 13.2362 18.3999 13.3729 18.5354L19.5562 24.7917C19.6925 24.9268 19.8541 25.0338 20.0318 25.1063C20.2095 25.1789 20.3997 25.2157 20.5917 25.2146C20.7836 25.2157 20.9738 25.1789 21.1515 25.1063C21.3292 25.0338 21.4908 24.9268 21.6271 24.7917C21.8987 24.5184 22.0511 24.1488 22.0511 23.7635C22.0511 23.3783 21.8987 23.0087 21.6271 22.7354L16.4646 17.5Z" fill="white"/>
</svg>
